<svg preserveAspectRatio="none" overflow="visible" style="display: block;" width="20" height="16.7" viewBox="0 0 20 16.7" fill="none" xmlns="http://www.w3.org/2000/svg">
<path id="Vector" d="M17.345 3.351H14.223V2.049C14.222 1.506 14.006 0.985 13.622 0.601C13.238 0.217 12.717 0.001 12.174 0H7.827C7.284 0.001 6.763 0.217 6.379 0.601C5.995 0.985 5.778 1.506 5.778 2.049V3.351H2.655C1.951 3.352 1.276 3.632 0.779 4.129C0.281 4.627 0.001 5.302 0 6.006V14.045C0.001 14.749 0.281 15.424 0.779 15.922C1.276 16.419 1.951 16.699 2.655 16.7H17.345C18.049 16.699 18.724 16.419 19.222 15.921C19.719 15.424 19.999 14.749 20 14.045V6.006C19.999 5.302 19.719 4.627 19.222 4.13C18.724 3.632 18.049 3.352 17.345 3.351ZM6.827 2.049C6.828 1.784 6.933 1.53 7.121 1.343C7.308 1.156 7.562 1.05 7.827 1.05H12.174C12.439 1.05 12.693 1.156 12.88 1.343C13.067 1.53 13.173 1.784 13.173 2.049V3.351H6.827V2.049ZM18.95 14.045C18.95 14.471 18.781 14.879 18.48 15.18C18.179 15.48 17.771 15.65 17.345 15.65H2.655C2.23 15.65 1.821 15.481 1.52 15.18C1.219 14.879 1.05 14.471 1.05 14.045V6.006C1.05 5.58 1.219 5.172 1.52 4.871C1.821 4.57 2.23 4.401 2.655 4.4H17.345C17.771 4.401 18.179 4.57 18.48 4.871C18.781 5.172 18.95 5.58 18.95 6.006V14.045ZM5.325 6.469V13.582C5.325 13.721 5.27 13.854 5.172 13.953C5.073 14.051 4.94 14.107 4.801 14.107C4.661 14.107 4.528 14.051 4.429 13.953C4.331 13.854 4.276 13.721 4.276 13.582V6.469C4.276 6.33 4.331 6.196 4.429 6.098C4.528 5.999 4.661 5.944 4.801 5.944C4.94 5.944 5.073 5.999 5.172 6.098C5.27 6.196 5.325 6.33 5.325 6.469ZM15.725 6.469V13.582C15.725 13.721 15.67 13.854 15.571 13.953C15.473 14.051 15.339 14.107 15.2 14.107C15.061 14.107 14.927 14.051 14.829 13.953C14.731 13.854 14.675 13.721 14.675 13.582V6.469C14.675 6.33 14.731 6.196 14.829 6.098C14.927 5.999 15.061 5.944 15.2 5.944C15.339 5.944 15.473 5.999 15.571 6.098C15.67 6.196 15.725 6.33 15.725 6.469Z" fill="#0073AE"/>
</svg>
