<svg width="80" height="70" viewBox="0 0 80 70" fill="none" xmlns="http://www.w3.org/2000/svg">
<path d="M50.202 69.6452C66.6584 69.6452 80 67.8473 80 65.6314C80 63.4156 66.6584 61.6177 50.202 61.6177C33.7456 61.6177 20.4041 63.4156 20.4041 65.6314C20.4041 67.8473 33.7456 69.6452 50.202 69.6452Z" fill="#030C6D"/>
<path d="M46.029 66.4972H53.5324L53.5854 66.4707C53.9536 66.2882 54.0565 65.8935 54.1095 65.658C54.2389 65.1604 54.3716 64.6363 54.5043 64.1354C54.6104 63.6644 54.7398 63.19 54.8725 62.7455L54.899 62.6394H55.2938C56.1595 62.6394 56.9192 62.4304 57.6821 62.2214C57.9707 62.1418 58.2328 62.0655 58.5479 62.0124L58.7834 61.9594L58.7038 62.1949C58.5214 62.6924 58.4152 63.2431 58.4152 63.8468V64.1089H64.5254C65.3381 64.1089 66.2569 63.0341 66.6252 62.5863L66.6782 62.5332H66.7578C72.5031 62.7422 75.7805 57.7068 75.9397 57.4712L75.9663 57.4182C76.4904 56.2638 76.623 54.7412 76.3345 53.1424L76.2283 52.6183L76.5434 53.0362C76.6993 53.2452 76.832 53.4542 76.9647 53.6665L77.2798 54.164L77.4358 53.5869C78.4342 50.0441 77.3296 46.4782 76.2018 44.1429C75.8866 43.4861 75.4687 42.6469 74.8384 41.9403C73.4485 40.368 71.4018 39.6847 69.2523 39.081H69.2258L69.1993 39.0544C69.1462 39.0013 69.0931 38.9217 69.0168 38.872C67.0497 36.7988 64.5586 35.3558 62.1437 33.9394C59.888 32.6291 57.2642 31.2127 54.7464 31.2127H54.5905L54.6171 31.0568C54.8791 29.4844 55.0616 27.043 54.3815 24.4191L54.355 24.313L54.4346 24.2599C56.4813 23.0525 58.1863 21.0058 59.2345 18.4881C60.1269 16.3883 60.6244 13.9502 60.8069 10.8288C60.913 9.09722 60.9396 6.81502 60.3624 4.58589C60.2562 4.16462 60.1003 3.74665 59.7852 3.43152C59.4701 3.1164 58.999 2.93395 58.4484 2.93395L58.4218 2.80127V2.93395C57.1879 2.93395 56.1131 3.74665 55.3004 4.32384L51.6283 7.05054C49.5816 8.57311 47.2464 10.3047 45.5944 12.5073L45.5413 12.5869L45.4352 12.5338C44.4898 12.139 41.0532 10.9349 36.4391 12.0893L36.3329 12.1158L36.2799 12.0097C34.8369 8.46696 32.5547 5.26923 29.6688 2.77473C28.7499 1.98856 27.4927 1.01664 26.0232 0.754583C25.3664 0.621897 24.7892 0.674972 24.3447 0.910489C23.7941 1.19908 23.3496 1.74973 23.0079 2.61551C22.0625 5.03039 22.2483 7.75709 22.5634 10.3279C22.7459 11.8505 22.9582 13.0811 23.2202 14.2355C23.9799 17.6986 25.3465 20.9494 27.2871 23.9149L27.3136 23.968L27.2871 24.0211C26.1858 28.0879 25.6351 30.9208 26.1061 33.4385L26.2123 33.9626L26.5805 33.5446C26.6866 33.4119 27.0781 33.256 27.6818 33.0471H27.7083C27.8642 32.994 28.0235 32.9409 28.1528 32.8912L28.2855 32.8381L28.3386 32.9708C28.5741 33.7304 28.8892 34.4933 29.3337 35.1999L29.3603 35.253L29.3337 35.306C28.0235 39.6084 27.9969 42.9653 29.2541 45.3006C29.3337 45.4598 29.4366 45.6157 29.5427 45.7717L29.5693 45.7982V45.9043C30.0138 48.16 30.9591 50.1005 32.4021 51.6496L32.4286 51.6762L33.4006 60.7254L33.2679 60.7519C32.2462 60.9078 29.8313 61.6973 29.5693 65.3694L29.5427 65.658H36.993C37.411 65.6314 37.7527 65.4225 38.0147 65.0808C39.1691 63.5317 38.5654 59.1265 38.2502 57.2888L38.1706 56.8941L38.4592 57.1561C40.1112 58.6787 42.1578 59.5179 43.2591 59.9624H43.2857C43.4947 60.042 43.7036 60.1183 43.8363 60.1979C45.2527 60.8282 48.1121 61.1433 49.6878 61.1699H49.7939L49.847 61.5646L49.7143 61.5912C48.6926 61.7471 46.2777 62.5365 46.0157 66.2086L46.0422 66.4972H46.029Z" fill="white"/>
<path d="M15.7331 45.3005C15.7331 45.3005 17.3851 48.0272 14.9204 49.0522C14.9204 49.0522 17.5974 47.8183 18.7252 49.8915C18.7252 49.8915 17.4149 47.4268 19.6971 46.1929C19.6971 46.1929 16.9173 48.004 15.7364 45.3005H15.7331Z" fill="#FFB400"/>
<path d="M18.7221 50.2863C18.5827 50.2863 18.4467 50.2133 18.3771 50.0806C17.5246 48.5116 15.5708 49.2082 15.1561 49.3774C15.1263 49.3907 15.0997 49.4039 15.0699 49.4139C14.8708 49.4968 14.6453 49.4039 14.559 49.2082C14.4728 49.0125 14.559 48.7836 14.7547 48.6941C14.7946 48.6775 14.8344 48.6576 14.8775 48.641C15.3618 48.4154 15.667 48.1036 15.7997 47.6923C15.9987 47.0853 15.7831 46.3422 15.5807 45.8712C15.5044 45.7418 15.4348 45.6058 15.3717 45.4599C15.2888 45.2708 15.3684 45.0485 15.5509 44.9523C15.7366 44.8561 15.9622 44.9192 16.0683 45.0983C16.0783 45.1182 16.1679 45.2641 16.2707 45.4963C16.5294 45.9243 16.8578 46.2029 17.2559 46.3223C18.052 46.5611 18.9509 46.1531 19.3125 45.9607C19.3722 45.9243 19.4386 45.8878 19.5016 45.8513C19.6874 45.7518 19.9196 45.8148 20.0257 45.9972C20.1352 46.1797 20.0788 46.4119 19.903 46.528C19.8897 46.5346 19.82 46.5811 19.7039 46.6441C18.0354 47.6989 19.0206 49.6295 19.067 49.7124C19.1666 49.9048 19.0936 50.1404 18.9045 50.2432C18.8448 50.273 18.7818 50.2896 18.7187 50.2896L18.7221 50.2863ZM16.5825 48.296C17.0469 48.296 17.5246 48.3789 17.9558 48.6012C17.9226 48.1302 17.9823 47.626 18.2079 47.1516C17.8331 47.2014 17.4317 47.1947 17.0336 47.0753C16.9009 47.0355 16.7782 46.9857 16.6555 46.926C16.6787 47.2544 16.6555 47.6027 16.546 47.9378C16.5062 48.0638 16.4531 48.1832 16.3934 48.2993C16.4564 48.2993 16.5195 48.296 16.5825 48.296Z" fill="#030C6D"/>
<path d="M34.7507 25.288C34.3295 25.8917 34.4887 26.2334 34.2532 26.94C33.8087 28.3033 32.7571 29.4842 31.4469 30.0879C30.1366 30.6917 27.6421 30.4561 26.3318 29.879C26.3583 28.9601 26.4877 28.0943 26.7763 27.1257C27.0649 26.1538 27.8511 25.1056 27.6155 24.1104C27.4829 23.5067 27.118 22.9826 26.8028 22.432C24.0496 17.9472 22.6597 12.6231 22.8687 7.37541C22.9218 5.8263 22.736 4.01845 23.3397 2.60202C23.6283 1.91869 24.4676 1.44766 25.2007 1.26521C25.6452 1.15906 26.1195 1.26521 26.564 1.42112C28.8727 2.23382 30.7867 3.9123 32.2297 5.87937C33.6727 7.84644 34.7209 10.0756 35.7193 12.3047C35.799 12.4606 35.8752 12.6198 36.0079 12.6994C36.1638 12.8056 36.4027 12.7525 36.5851 12.726C37.1623 12.5933 39.1825 11.8867 39.6004 12.2284C40.0714 12.5966 39.9421 14.7461 39.9686 15.2968C39.9952 17.3965 39.5208 19.3105 38.8142 21.2511L38.5522 21.6955L37.6068 20.5943L35.8222 20.3587L34.4323 21.0421L33.6461 22.1168V23.5863L34.4323 24.6876L34.7474 25.2913L34.7507 25.288Z" fill="#4E68F6"/>
<path d="M31.9178 14.9519C31.5496 14.9254 31.2079 14.9254 30.8696 14.8989C31.2112 14.2421 31.4468 13.5355 31.6292 12.8256C31.1316 12.7991 30.634 12.6697 30.1862 12.484C30.3952 11.9864 31.0255 11.6978 31.1316 11.1737C31.1847 10.9382 31.1051 10.7027 31.0255 10.4638C30.4218 8.65266 29.347 7.00072 27.9571 5.74352C27.7216 5.53453 27.433 5.29902 27.1179 5.24594C26.6734 5.16633 26.2256 5.40185 25.937 5.77005C25.6484 6.13826 25.5157 6.55622 25.4129 7.00403C24.9684 8.65597 24.7826 10.4406 25.3598 12.0395C25.5157 12.484 25.7545 12.9318 25.9635 13.3497C26.3317 14.0596 26.6966 14.7662 27.0648 15.476C27.5889 16.4712 28.1396 17.5227 29.0053 18.3089C29.2143 18.4913 29.4498 18.7036 29.6887 18.8065C30.0303 18.9624 30.0303 18.8065 30.1597 18.4913C30.3687 17.9141 30.6838 17.39 30.9989 16.8394C31.3406 16.2091 31.7088 15.6054 31.9178 14.9519Z" fill="white"/>
<path d="M36.0111 54.8772C36.1172 55.4013 36.1405 55.9784 35.8552 56.4229C35.5135 56.9471 34.8335 57.1826 34.2032 57.2091C34.0739 57.2091 33.9147 57.2091 33.7853 57.156C33.5498 57.0499 33.4171 56.7878 33.3673 56.5523C33.2346 56.1576 33.2114 55.7396 33.1583 55.3183C33.029 54.164 32.8697 53.0096 32.7371 51.8552C32.7371 51.8552 33.6028 52.3528 33.6824 52.4324C33.971 52.6945 34.2331 53.0096 34.5482 53.2717C34.8368 53.5337 35.1254 53.5868 35.4405 53.7692C35.8087 53.9782 35.9381 54.5023 36.0177 54.8705L36.0111 54.8772Z" fill="#4E68F6"/>
<path d="M54.6073 59.415C53.6353 59.9922 52.4312 60.5959 51.4062 60.1215C50.4608 59.677 50.1192 58.5227 49.9102 57.4977C49.6216 56.1078 49.4126 54.6914 49.2534 53.3015C49.2268 52.9598 49.1738 52.6181 49.3065 52.3063C49.4391 51.9381 49.7244 51.6761 49.9898 51.3875C51.1707 50.1303 52.0896 48.6342 52.6402 46.979C52.7463 47.7652 52.8492 48.5281 52.9553 49.3143C55.3171 45.5095 55.8147 40.5802 54.2158 36.3575C53.9273 35.6244 53.5856 34.888 53.4828 34.1018C53.3766 33.3156 53.5624 32.4499 54.1661 31.9258C54.9788 31.2424 56.1862 31.4547 57.2079 31.7964C60.6445 32.9508 63.6598 35.1003 66.6253 37.2266C67.1494 37.5948 67.6735 37.9862 68.1479 38.434C68.4099 38.6961 68.6455 38.9847 68.9606 39.1936C69.3819 39.4557 69.8794 39.5353 70.3505 39.6647C73.0772 40.3712 75.2831 42.5771 76.4109 45.1745C77.5387 47.7718 77.6714 50.7075 77.2236 53.5171C76.673 52.993 76.2019 52.4158 75.8337 51.759C77.1175 56.3765 74.9945 59.3652 71.7669 61.0437C71.0836 61.3854 70.377 61.6474 69.6671 61.8829C69.2989 62.0156 68.9075 62.145 68.5658 62.0156C68.0948 61.8597 67.856 61.3588 67.7531 60.8878C67.5442 59.8661 67.8328 57.5574 68.8014 57.2157C65.4975 57.4778 63.3712 59.5775 59.5432 61.2825C59.2546 61.4152 58.9925 61.6242 58.704 61.7536C57.5496 62.2246 54.876 62.8018 55.0053 62.0952C55.0584 62.0687 55.6356 59.9955 55.7119 59.76C56.0801 58.6587 55.3437 58.9738 54.6106 59.4183L54.6073 59.415Z" fill="#4E68F6"/>
<path d="M52.378 39.7408C52.6666 39.2432 53.0614 38.4537 53.0614 38.4537C54.1627 40.3412 53.2969 41.5486 53.9802 43.6484C54.2954 42.494 55.1611 42.5736 55.1346 41.3662C55.1346 40.0825 54.7399 38.8219 54.3484 37.6145C54.1129 36.8549 53.8774 36.1185 53.6419 35.3588C53.4827 34.8613 52.7496 34.0718 52.2255 33.8628C51.7544 34.4665 51.9634 35.936 51.8838 36.7222C51.9103 36.7222 52.3548 38.7158 52.3814 39.7375L52.378 39.7408Z" fill="#4E68F6"/>
<path d="M30.2658 36.1219C30.4748 36.3839 31.261 36.855 31.261 37.1966C31.261 38.4572 31.47 40.2916 31.47 41.5521C31.1548 41.1573 29.9739 40.0295 29.8711 39.5319C29.7152 40.5801 30.3156 43.2836 30.027 44.2788C29.9739 44.4612 28.6371 42.7562 28.6371 42.5472C28.5044 41.1839 28.6106 39.794 28.8992 38.4306C28.9523 38.0359 29.4498 35.0737 30.2625 36.1219H30.2658Z" fill="#4E68F6"/>
<path d="M43.6173 21.2212C43.4348 20.3024 43.2225 19.3835 43.0401 18.468C42.8046 17.3402 42.569 16.1858 42.569 15.0314C42.569 14.4012 42.5425 12.8554 43.1197 12.4341C43.4613 12.1721 45.5346 12.7758 45.4815 12.9317C45.7436 12.0924 46.48 11.4887 47.1865 10.9381C48.6825 9.7837 50.152 8.6028 51.6448 7.44843C53.1939 6.24098 54.7662 5.01032 56.3916 3.90571C57.0484 3.46121 57.7815 3.0134 58.5677 3.11954C59.669 3.27545 60.2992 4.42982 60.5347 5.50789C60.9792 7.44843 60.6906 9.49511 60.4286 11.4622C60.2959 12.4839 60.14 13.4823 60.0106 14.504C59.931 15.1608 59.8282 15.8143 59.6955 16.4711C59.2245 18.5974 58.226 20.6407 56.6537 22.1368C56.312 22.4519 55.9471 22.767 55.6054 23.0556C55.0813 23.4769 54.5838 23.8949 54.0597 24.3394C54.6103 26.1771 55.1609 28.247 54.5572 30.0581C54.5041 30.1908 54.4511 30.3467 54.3482 30.4263C54.2189 30.5325 54.0597 30.559 53.9037 30.559C52.6698 30.6917 50.7292 30.6917 49.7075 30.0349C48.5001 29.2753 48.0556 27.7527 47.6343 26.3894L47.3192 25.3146L48.6295 24.0541L48.865 22.296L47.8665 20.6175L45.4782 20.3289L43.7997 21.8515L43.6173 21.2212Z" fill="#4E68F6"/>
<path d="M57.8578 11.2269C57.6753 12.4609 57.1744 13.6418 56.4944 14.69C56.312 14.9786 56.0997 15.2672 55.9172 15.5558C55.2107 16.5775 54.5008 17.6025 53.7909 18.6242C53.2668 19.3838 52.7162 20.1733 52.0594 20.8267C51.8504 19.4899 51.1405 18.256 50.0923 17.4167C50.5633 17.1547 51.0112 16.8661 51.4822 16.604C51.0875 16.133 50.5633 15.7648 50.0127 15.5293C50.3544 15.2407 50.696 14.9255 51.0112 14.6104C50.7491 14.5043 50.5136 14.428 50.2515 14.3218C51.0642 13.1674 52.0627 12.1723 53.2403 11.3563C53.4493 11.2236 53.635 11.0942 53.8175 10.935C54.0265 10.7791 54.1857 10.5933 54.3681 10.3844C54.8922 9.80717 55.4163 9.25652 55.9172 8.67933C56.2058 8.3642 56.4944 8.02254 56.8626 7.78702C57.0451 7.65433 57.1777 7.52496 57.3602 7.65433C57.4929 7.76048 57.5957 8.17844 57.6488 8.33767C57.9639 9.28306 58.017 10.2782 57.8578 11.2236V11.2269Z" fill="white"/>
<path d="M70.5296 11.3328C70.5296 11.3328 72.4701 16.4213 76.4308 14.2187C76.4308 14.2187 71.946 16.5009 73.5449 20.1995C73.5449 20.1995 71.6309 15.8441 67.5641 17.6022C67.5375 17.5756 72.8881 15.7413 70.5296 11.3328Z" fill="#FFB400"/>
<path d="M73.5449 20.591C73.3924 20.591 73.2497 20.5047 73.1834 20.3555C73.1104 20.1929 71.3722 16.3815 67.72 17.9605C67.584 18.0202 67.4314 17.997 67.3187 17.9041C67.2059 17.8112 67.1528 17.6653 67.1793 17.5226C67.2191 17.317 67.3784 17.2473 67.4945 17.1975C69.0967 16.5142 70.1913 15.5323 70.5761 14.4344C70.8249 13.7245 70.7884 12.9483 70.4633 12.119C70.2742 11.7574 70.1747 11.502 70.1615 11.4688C70.0885 11.2764 70.178 11.0575 70.3671 10.9712C70.5562 10.885 70.7784 10.9613 70.878 11.1437C70.9907 11.356 71.0903 11.565 71.1732 11.774C71.5679 12.5204 72.3839 13.7709 73.598 14.2154C74.3908 14.504 75.2533 14.4012 76.1655 13.9136C76.2186 13.8837 76.2484 13.8671 76.2517 13.8671C76.4441 13.7709 76.6763 13.8439 76.7759 14.033C76.8754 14.2221 76.8057 14.4576 76.6199 14.5604C76.5868 14.5803 76.5503 14.5969 76.5171 14.6168C76.2418 14.7727 75.3793 15.2902 74.6661 16.0962C73.5649 17.3369 73.3094 18.6637 73.9065 20.0403C73.9928 20.2394 73.8999 20.4683 73.7042 20.5578C73.6544 20.581 73.598 20.591 73.5483 20.591H73.5449ZM69.7302 16.7995C71.0969 16.899 72.1186 17.6619 72.8119 18.4249C72.8815 17.0516 73.681 15.9437 74.4903 15.1641C74.0923 15.1641 73.7042 15.0911 73.326 14.9551C72.5929 14.6898 71.9925 14.1988 71.5215 13.6714C71.5016 14.023 71.4352 14.3647 71.3191 14.6997C71.0471 15.4693 70.5031 16.1858 69.7335 16.7995H69.7302Z" fill="#030C6D"/>
<path d="M46.1885 25.8123C44.5697 25.8123 43.2495 24.4954 43.2495 22.8733C43.2495 21.2512 44.5664 19.9343 46.1885 19.9343C47.8106 19.9343 49.1275 21.2512 49.1275 22.8733C49.1275 24.4954 47.8106 25.8123 46.1885 25.8123ZM46.1885 20.7238C45.001 20.7238 44.039 21.6891 44.039 22.8733C44.039 24.0575 45.0043 25.0228 46.1885 25.0228C47.3727 25.0228 48.338 24.0575 48.338 22.8733C48.338 21.6891 47.3727 20.7238 46.1885 20.7238Z" fill="#030C6D"/>
<path d="M47.3422 24.1075C47.3953 24.3961 47.3687 24.6582 47.3422 24.9202C47.3422 24.9202 45.8992 25.7064 44.851 24.6316C43.8028 23.5569 44.1179 22.0343 44.1179 22.0343C44.2506 22.0078 44.38 21.9812 44.5127 21.9547C45.876 21.7723 47.1631 22.7409 47.3455 24.1042L47.3422 24.1075Z" fill="#030C6D"/>
<path d="M46.2111 25.5902C45.6638 25.5902 45.0667 25.421 44.5658 24.9069C43.3849 23.6961 43.7133 22.0276 43.7266 21.9546L43.7796 21.6992L44.4298 21.5698C45.2193 21.4637 45.9822 21.666 46.6025 22.1371C47.2228 22.6081 47.6242 23.2848 47.7271 24.0444C47.7868 24.3828 47.7569 24.688 47.7271 24.9566L47.7071 25.1623L47.5247 25.2651C47.2328 25.4244 46.7452 25.5869 46.2078 25.5869L46.2111 25.5902ZM44.4696 22.3626C44.4431 22.7905 44.4762 23.6862 45.1297 24.3562C45.7699 25.0097 46.6025 24.7974 46.9674 24.6548C46.9807 24.4922 46.9807 24.3363 46.9508 24.1771V24.1572C46.8745 23.6032 46.5826 23.1057 46.1282 22.7607C45.6737 22.4157 45.1165 22.2664 44.5592 22.3427L44.4696 22.3593V22.3626Z" fill="#030C6D"/>
<path d="M46.344 23.1617C46.7354 23.1617 47.0506 22.8432 47.0506 22.4518C47.0506 22.0604 46.7321 21.7419 46.344 21.7419C45.9559 21.7419 45.6375 22.0604 45.6375 22.4518C45.6375 22.8432 45.9559 23.1617 46.344 23.1617Z" fill="white"/>
<path d="M36.22 25.8123C34.6012 25.8123 33.281 24.4954 33.281 22.8733C33.281 21.2512 34.5979 19.9343 36.22 19.9343C37.8421 19.9343 39.159 21.2512 39.159 22.8733C39.159 24.4954 37.8421 25.8123 36.22 25.8123ZM36.22 20.7238C35.0325 20.7238 34.0705 21.6891 34.0705 22.8733C34.0705 24.0575 35.0358 25.0228 36.22 25.0228C37.4042 25.0228 38.3695 24.0575 38.3695 22.8733C38.3695 21.6891 37.4042 20.7238 36.22 20.7238Z" fill="#030C6D"/>
<path d="M37.4242 24.0805C37.4773 24.3691 37.4773 24.6312 37.4242 24.8932C37.4242 24.8932 36.0078 25.7059 34.9065 24.6577C33.8052 23.6095 34.1204 22.0604 34.1204 22.0604C34.2497 22.0338 34.3559 21.9808 34.4886 21.9542C35.8785 21.7718 37.1887 22.7139 37.4276 24.0805H37.4242Z" fill="#030C6D"/>
<path d="M36.2565 25.5865C35.7258 25.5865 35.142 25.4273 34.6344 24.9429C33.3905 23.7587 33.7189 22.0537 33.7322 21.984L33.7853 21.7286L34.0407 21.6789C34.0904 21.6689 34.1336 21.6523 34.1767 21.6391C34.2497 21.6158 34.326 21.5893 34.4089 21.5727C36.0277 21.3604 37.5403 22.4551 37.8123 24.0141C37.872 24.3492 37.872 24.6643 37.8123 24.9728L37.7758 25.1486L37.6199 25.2382C37.3213 25.4073 36.8171 25.5865 36.2565 25.5865ZM34.4785 22.3655C34.4487 22.7868 34.4785 23.7123 35.1751 24.3757C35.8585 25.0292 36.7077 24.7804 37.0626 24.6345C37.0759 24.4819 37.0659 24.326 37.0361 24.1568C36.837 23.0057 35.7158 22.1997 34.5383 22.3523C34.525 22.3523 34.5051 22.3622 34.4785 22.3688V22.3655Z" fill="#030C6D"/>
<path d="M36.3759 23.1617C36.7673 23.1617 37.0858 22.8432 37.0858 22.4518C37.0858 22.0604 36.7673 21.7419 36.3759 21.7419C35.9845 21.7419 35.666 22.0604 35.666 22.4518C35.666 22.8432 35.9845 23.1617 36.3759 23.1617Z" fill="white"/>
<path d="M64.5286 64.2944C64.5053 64.2944 64.4788 64.2944 64.4556 64.2944H58.2791V63.8996C58.2791 59.6504 62.7141 59.5475 62.7605 59.5442H62.7638C62.9795 59.5442 63.1553 59.7167 63.1586 59.9323C63.1586 60.1479 62.9861 60.3271 62.7705 60.3304C62.6245 60.3304 59.3405 60.4233 59.0818 63.5049H64.5053C64.9299 63.548 65.7891 62.6856 66.2236 62.0918L66.3497 61.9193L66.5653 61.9326C71.886 62.2543 75.1103 57.5672 75.3524 57.2056C75.9727 55.8124 75.9628 53.9017 75.3259 51.9579L74.9013 50.6642L75.9495 51.53C76.3476 51.8584 76.7058 52.2299 77.0375 52.6611C77.4854 50.2031 77.0044 47.3537 75.6576 44.5275C75.3558 43.9038 74.9378 43.1077 74.3772 42.4675C73.0868 41.008 71.133 40.3744 68.9006 39.7541C68.6916 39.6944 68.5689 39.4788 68.6286 39.2698C68.6883 39.0608 68.9039 38.9381 69.1129 38.9978C71.468 39.6513 73.5313 40.3279 74.9676 41.95C75.5913 42.6632 76.0424 43.5224 76.3642 44.1891C77.4887 46.5476 78.6132 50.1135 77.5948 53.7259L77.3527 54.5884L76.8816 53.8254C76.7423 53.5966 76.593 53.3843 76.4438 53.1819C76.7324 54.804 76.603 56.3465 76.0557 57.5572L76.0291 57.607C75.8931 57.8226 72.6954 62.7353 67.0894 62.7353C66.97 62.7353 66.8506 62.7353 66.7312 62.7287C66.3563 63.2097 65.4076 64.2944 64.5286 64.2944Z" fill="#030C6D"/>
<path d="M70.2671 41.7082C70.0979 41.7082 69.9453 41.5988 69.8923 41.4329C69.68 40.7496 69.2388 40.0828 68.5455 39.3895C66.6978 37.4391 64.3261 36.0492 62.0339 34.7057L61.805 34.573C59.5162 33.2362 56.8592 31.8198 54.4144 31.9259C54.2021 31.9392 54.0131 31.7667 54.0031 31.5511C53.9932 31.3355 54.1623 31.1497 54.3779 31.1398C57.0449 31.0303 59.8114 32.5031 62.1998 33.8963L62.4287 34.029C64.7673 35.4023 67.1888 36.8221 69.1061 38.8422C69.8823 39.6184 70.3865 40.3913 70.6386 41.2007C70.705 41.4064 70.5889 41.6286 70.3799 41.695C70.3401 41.7082 70.3003 41.7115 70.2638 41.7115L70.2671 41.7082Z" fill="#030C6D"/>
<path d="M56.2326 59.1794C56.153 59.1794 56.0767 59.1562 56.0071 59.1064C55.828 58.9804 55.7848 58.7349 55.9109 58.5591C56.9492 57.0796 58.1533 55.6533 59.4967 54.3098L60.0175 53.789L60.3592 55.5073C61.905 52.6247 62.0775 49.0024 60.7539 46.0136C60.6677 45.8146 60.7539 45.5824 60.953 45.4928C61.152 45.4066 61.3842 45.4928 61.4737 45.6918C63.0394 49.2279 62.6547 53.5867 60.4952 56.801L59.9678 57.5871L59.5332 55.3978C58.422 56.5588 57.4434 57.7464 56.5544 59.0102C56.4781 59.1197 56.3554 59.1761 56.2326 59.1761V59.1794Z" fill="#030C6D"/>
<path d="M47.9959 59.047C47.8134 59.047 47.6509 58.9176 47.6111 58.7318C47.2926 57.1993 47.7504 55.617 48.1153 54.3466C48.3508 53.4509 48.6328 52.4989 49.1934 51.6895C49.4554 51.3114 49.7706 50.9896 50.0724 50.6745C50.288 50.4522 50.4937 50.2399 50.6828 50.011C51.5087 48.9894 51.9831 47.6459 51.9831 46.3257V43.6886L52.7527 46.2096C52.9318 46.7901 53.0678 47.4004 53.164 48.0075C53.6218 47.0853 53.9502 46.1432 54.1426 45.1945L54.2354 44.7335L54.3151 44.7633C54.5539 43.9174 55.0117 41.5722 54.7728 40.2553C54.524 38.7559 53.7014 36.5268 53.101 34.9014L52.8754 34.2877C52.8024 34.0821 52.9053 33.8565 53.1109 33.7835C53.3166 33.7072 53.5422 33.8134 53.6151 34.0191L53.8407 34.6294C54.4511 36.2847 55.287 38.5536 55.549 40.1226C55.7381 41.1542 55.3998 44.6406 54.8956 45.45C54.6036 46.8299 54.0464 48.1899 53.237 49.4936L52.5736 50.565L52.5072 49.3078C52.4906 49.0159 52.4641 48.724 52.4276 48.4288C52.1788 49.1784 51.794 49.885 51.2931 50.5053C51.0841 50.7607 50.8586 50.9962 50.6397 51.2218C50.3444 51.527 50.0691 51.8123 49.8435 52.1373C49.3559 52.8439 49.1104 53.6864 48.8782 54.5555C48.5333 55.753 48.1054 57.2292 48.384 58.5726C48.4271 58.7849 48.2911 58.9939 48.0788 59.037C48.0523 59.0436 48.0257 59.047 47.9992 59.047H47.9959Z" fill="#030C6D"/>
<path d="M55.2575 62.8451C55.0916 62.8451 54.9224 62.8385 54.7499 62.8219C54.5343 62.802 54.3751 62.6096 54.395 62.394C54.4149 62.1784 54.6073 62.0191 54.8229 62.039C55.7617 62.1286 56.5943 61.9064 57.4766 61.6675C58.0339 61.5183 58.6144 61.3623 59.2447 61.2794C59.4603 61.2529 59.6593 61.4022 59.6858 61.6178C59.7157 61.8334 59.5631 62.0324 59.3475 62.059C58.767 62.1352 58.2164 62.2845 57.6823 62.4272C56.916 62.6328 56.1299 62.8451 55.2541 62.8451H55.2575Z" fill="#030C6D"/>
<path d="M48.7822 38.9549C48.6727 38.9549 48.5632 38.9085 48.487 38.8222C48.3443 38.6597 48.3609 38.4109 48.5234 38.2683C49.9697 36.9945 51.0478 35.2662 51.552 33.3987L51.8605 32.2609L52.2818 33.3158C52.3912 33.4086 52.7661 33.5811 52.9717 33.674C53.0447 33.7072 53.1111 33.737 53.1708 33.7669C54.0034 31.8695 54.7332 28.0979 53.6518 24.376C53.592 24.1671 53.7115 23.9481 53.9205 23.8884C54.1261 23.8287 54.3484 23.9481 54.4081 24.1571C55.6321 28.3566 54.6535 32.6391 53.6982 34.4934L53.4693 34.9412L53.0912 34.6095C53.0381 34.5696 52.8125 34.4668 52.6467 34.3905C52.4576 34.3043 52.2917 34.228 52.1491 34.1517C51.552 35.9562 50.464 37.6115 49.0476 38.8587C48.9713 38.9251 48.8817 38.9582 48.7888 38.9582L48.7822 38.9549Z" fill="#030C6D"/>
<path d="M54.0299 24.658C53.8906 24.658 53.7579 24.585 53.6849 24.4556C53.5788 24.2665 53.6485 24.0277 53.8375 23.9216C55.8544 22.797 57.5527 20.8134 58.6275 18.3388C59.4933 16.3186 59.9842 13.9602 60.17 10.915C60.3226 8.50012 60.1833 6.57949 59.7354 4.87447C59.6492 4.57593 59.5397 4.23095 59.3407 4.0286C59.1516 3.83952 58.8232 3.72342 58.465 3.72342C57.503 3.72342 56.6107 4.32051 55.7084 4.98394C55.1047 5.43507 54.5043 5.87957 53.9039 6.32407C53.2836 6.78515 52.6633 7.24292 52.0363 7.71064L51.9202 7.8002C49.3693 9.7142 46.7322 11.6912 45.1964 14.461C45.0902 14.6501 44.8514 14.7198 44.6623 14.6136C44.4732 14.5075 44.4036 14.2686 44.5097 14.0796C46.1252 11.1638 48.832 9.1337 51.4492 7.17326L51.5686 7.0837C52.1955 6.61598 52.8159 6.15489 53.4395 5.69381C54.0399 5.24931 54.637 4.80481 55.244 4.35368C56.2193 3.63717 57.2708 2.93726 58.4683 2.93726C59.0388 2.93726 59.5596 3.13297 59.9013 3.47132C60.2363 3.80635 60.3856 4.2608 60.4984 4.66549C60.9727 6.46339 61.1187 8.46031 60.9595 10.9614C60.7671 14.0995 60.2562 16.5409 59.354 18.6473C58.2129 21.2811 56.3917 23.3975 54.2256 24.6082C54.1659 24.6414 54.0996 24.658 54.0332 24.658H54.0299Z" fill="#030C6D"/>
<path d="M27.6154 24.4223C27.4894 24.4223 27.3633 24.3593 27.287 24.2465C25.3199 21.2677 23.877 17.8577 23.114 14.3813C22.8387 13.1473 22.6198 11.8669 22.4506 10.4604C22.1255 8.03561 21.9232 5.21271 22.8951 2.69167C23.2368 1.77614 23.6979 1.19232 24.2983 0.903729C24.7892 0.65826 25.4029 0.601868 26.0696 0.741189C27.5955 1.03973 28.8428 1.99839 29.7616 2.79782C33.0622 5.64394 35.55 9.3691 36.9598 13.5653C37.0295 13.771 36.9167 13.9932 36.711 14.0629C36.5054 14.1325 36.2831 14.0197 36.2135 13.8141C34.87 9.81028 32.3954 6.10502 29.2475 3.38828C28.4016 2.65187 27.2605 1.77282 25.9137 1.50745C25.5654 1.43447 25.0678 1.39135 24.6432 1.60365C24.2352 1.79936 23.8936 2.25713 23.6282 2.96368C22.7193 5.32218 22.9183 8.02234 23.2301 10.3543C23.396 11.7375 23.6083 12.9947 23.8803 14.2022C24.6233 17.5857 26.0298 20.9062 27.9438 23.802C28.0632 23.9845 28.0135 24.2266 27.831 24.346C27.7647 24.3892 27.6884 24.4124 27.6154 24.4124V24.4223Z" fill="#030C6D"/>
<path d="M31.9441 38.1654C31.8645 38.1654 31.7816 38.1422 31.7119 38.0891C30.0533 36.8817 28.7928 35.0805 28.1991 33.0902C28.0564 33.1499 27.9005 33.2096 27.7313 33.2726C27.4029 33.3954 26.7926 33.6276 26.6798 33.7503L26.1391 34.3474L25.9932 33.5612C25.5387 30.9771 26.1325 27.9652 27.2338 23.9448C27.2902 23.7358 27.5091 23.6131 27.7181 23.6695C27.9271 23.7259 28.0498 23.9448 27.9934 24.1538C27.0049 27.7628 26.4343 30.5194 26.6864 32.8414C26.8954 32.7452 27.1508 32.6457 27.4527 32.5329C27.7446 32.4234 28.1128 32.2841 28.2256 32.2012L28.6999 31.8628L28.836 32.4301C29.3169 34.427 30.5343 36.2581 32.173 37.4489C32.3488 37.575 32.3886 37.8237 32.2593 37.9996C32.183 38.1057 32.0635 38.1621 31.9408 38.1621L31.9441 38.1654Z" fill="#030C6D"/>
<path d="M49.9002 61.3821C48.1885 61.3821 45.2628 61.057 43.8464 60.4002C43.6938 60.3306 43.4914 60.251 43.2526 60.1548C41.2457 59.3487 36.542 57.4579 35.8554 52.4888C35.8255 52.2732 35.9748 52.0742 36.1904 52.0443C36.406 52.0145 36.605 52.1637 36.6349 52.3794C37.2585 56.894 41.5045 58.6023 43.5445 59.4217C43.7966 59.5245 44.0089 59.6074 44.1715 59.6837C45.5249 60.3107 48.5302 60.6192 50.0859 60.5926H50.0926C50.3082 60.5926 50.484 60.7651 50.4873 60.9807C50.4906 61.1997 50.3181 61.3755 50.0992 61.3821C50.0329 61.3821 49.9665 61.3821 49.8969 61.3821H49.9002Z" fill="#030C6D"/>
<path d="M36.5086 54.5886C36.4688 54.5886 36.4323 54.582 36.3925 54.572C36.1636 54.5024 30.75 52.7476 29.4331 46.0337C29.39 45.8214 29.5293 45.6124 29.7449 45.5726C29.9572 45.5328 30.1662 45.6688 30.206 45.8844C31.43 52.1206 36.4157 53.756 36.6247 53.8223C36.8304 53.8887 36.9465 54.1076 36.8834 54.3166C36.8304 54.4858 36.6745 54.5919 36.5086 54.5919V54.5886Z" fill="#030C6D"/>
<path d="M31.9443 47.9244C31.9078 47.9244 31.8713 47.9178 31.8348 47.9078C31.7684 47.8879 30.1895 47.4136 29.1313 45.4432C27.8409 43.0449 27.8841 39.5851 29.2607 35.1633C29.3237 34.9577 29.546 34.8416 29.7549 34.9046C29.9639 34.9676 30.0767 35.1899 30.0137 35.3989C28.7266 39.5353 28.657 42.8724 29.8113 45.0485C30.707 46.7336 32.0006 47.1383 32.057 47.1548C32.2627 47.2179 32.3821 47.4368 32.3224 47.6425C32.2727 47.815 32.1167 47.9244 31.9476 47.9244H31.9443Z" fill="#030C6D"/>
<path d="M52.063 21.2212C51.8806 21.2212 51.718 21.0952 51.6782 20.9094C51.174 18.5277 49.7443 17.6022 49.7311 17.5956L49.0577 17.171L50.8788 16.4943L48.5701 15.7247L50.3348 14.7494L49.2567 14.3812L49.7211 13.9334C53.6453 10.1386 57.1051 7.25268 57.1383 7.22615L57.543 6.89111L57.7519 7.3721C59.6693 11.7806 56.9591 14.8025 56.8397 14.9286C56.6938 15.0878 56.4417 15.0977 56.2824 14.9518C56.1232 14.8058 56.1133 14.5571 56.2592 14.3978C56.3554 14.2917 58.5348 11.8337 57.2245 8.18149C56.246 9.01409 53.6553 11.2499 50.7295 14.0528L52.272 14.577L50.5206 15.5456L53.2472 16.4545L50.7096 17.3932C51.2636 17.9405 52.0763 18.9987 52.4445 20.7469C52.4909 20.9592 52.3549 21.1681 52.1426 21.2146C52.1161 21.2212 52.0863 21.2245 52.0597 21.2245L52.063 21.2212Z" fill="#030C6D"/>
<path d="M45.6343 13.4294C45.5746 13.4294 45.5149 13.4162 45.4551 13.3863C45.4187 13.3664 41.6039 11.4856 36.2932 12.9418C36.0842 13.0015 35.8686 12.8755 35.8089 12.6665C35.7525 12.4575 35.8752 12.2419 36.0842 12.1822C41.7001 10.6364 45.6442 12.6001 45.8101 12.6831C46.0025 12.7826 46.0788 13.0181 45.9826 13.2105C45.9129 13.3465 45.7736 13.4261 45.631 13.4261L45.6343 13.4294Z" fill="#030C6D"/>
<path d="M38.4359 32.3571C38.1838 32.3571 37.9185 32.3305 37.6498 32.2675C36.4722 31.9955 35.4936 31.1098 34.7373 29.637C34.6378 29.4446 34.7141 29.2058 34.9065 29.1063C35.0989 29.0068 35.3377 29.083 35.4372 29.2754C36.0808 30.5293 36.8802 31.2757 37.8189 31.4979C39.1956 31.8197 40.4528 30.9075 40.466 30.8975L40.6684 30.7483L40.8906 30.8677C42.1677 31.561 43.2723 31.7268 44.1746 31.3619C45.4783 30.8378 45.9626 29.3517 45.9659 29.3351C46.0322 29.1295 46.2545 29.0134 46.4601 29.0797C46.6658 29.1461 46.7819 29.365 46.7189 29.5707C46.6956 29.647 46.1251 31.4183 44.4765 32.0884C43.3984 32.5263 42.1379 32.3836 40.7248 31.6671C40.34 31.9026 39.4742 32.3504 38.4359 32.3504V32.3571Z" fill="#030C6D"/>
<path d="M40.5358 33.9094C39.6534 33.9094 38.3199 33.5412 37.9153 32.0817C37.8555 31.8727 37.9783 31.6538 38.1873 31.5974C38.3962 31.5377 38.6152 31.6604 38.6716 31.8694C39.0729 33.309 40.7182 33.1166 40.7879 33.1067H40.8476C42.5327 33.1465 42.9905 31.9026 43.0104 31.8495C43.0801 31.6438 43.3056 31.5344 43.508 31.6073C43.7136 31.677 43.8231 31.8992 43.7534 32.1016C43.5411 32.7385 42.6555 33.9227 40.8542 33.8929C40.7581 33.9028 40.6486 33.9094 40.5325 33.9094H40.5358Z" fill="#030C6D"/>
<path d="M41.282 25.3148C42.5691 25.5238 44.2476 28.2273 42.7515 28.6452C41.2555 29.0665 38.4227 29.511 38.1871 28.0415C37.9782 26.5455 39.9983 25.129 41.282 25.3148Z" fill="#030C6D"/>
<path d="M40.1242 29.448C39.4906 29.448 38.8802 29.3518 38.4391 29.0698C38.0841 28.8443 37.8619 28.5092 37.7989 28.1045C37.6993 27.3847 37.9913 26.645 38.6281 26.0114C39.401 25.2418 40.4891 24.804 41.3383 24.9267H41.3449C42.4794 25.1125 43.6702 26.7147 43.7299 27.7728C43.7664 28.4031 43.448 28.8609 42.8575 29.0267C42.3931 29.1561 41.2255 29.4513 40.1242 29.4513V29.448ZM41.0463 25.6897C40.4658 25.6897 39.7162 26.038 39.1854 26.5654C38.9201 26.8274 38.4921 27.3648 38.5784 27.9851C38.6082 28.1609 38.6978 28.2969 38.8637 28.4031C39.5569 28.8443 41.262 28.6519 42.6452 28.2638C42.8376 28.2107 42.9603 28.1112 42.9438 27.8126C42.9006 27.0198 41.9188 25.819 41.2222 25.7029C41.1658 25.6963 41.1061 25.6897 41.0463 25.6897Z" fill="#030C6D"/>
<path d="M29.8178 65.8935H29.3965L29.4263 65.4722C29.6685 62.0522 31.828 60.8978 33.2411 60.7054L32.2857 51.6927C32.2625 51.4771 32.4184 51.2814 32.634 51.2615C32.853 51.2449 33.0454 51.3942 33.0653 51.6098L34.1068 61.4618H33.669C33.5462 61.4618 30.7068 61.5281 30.2457 65.1073H36.9729C37.1686 65.0907 37.3444 64.9879 37.5003 64.7789C38.5784 63.3359 37.7955 58.2441 37.4008 56.3998C37.3543 56.1875 37.4903 55.9785 37.7026 55.9321C37.9149 55.8856 38.1239 56.0216 38.1703 56.2339C38.3229 56.9471 39.6133 63.2596 38.1305 65.2466C37.842 65.6314 37.4538 65.8537 37.0027 65.8901H29.8111L29.8178 65.8935Z" fill="#030C6D"/>
<path d="M53.5821 66.7062H45.8962L45.9261 66.2849C46.1682 62.8649 48.3277 61.7106 49.7408 61.5182L48.7855 52.5055C48.7623 52.2899 48.9182 52.0942 49.1338 52.0743C49.356 52.0544 49.5451 52.2069 49.565 52.4226L50.6066 62.2745H50.1687C50.046 62.2745 47.2065 62.3408 46.7454 65.92H53.3432C53.403 65.8537 53.4494 65.7376 53.4826 65.5817C53.6352 65.0244 53.7712 64.4804 53.9005 63.9497C54.355 62.112 54.826 60.2079 55.8974 58.5692C56.0169 58.3868 56.2623 58.337 56.4415 58.4565C56.6239 58.5759 56.6737 58.818 56.5542 59.0005C55.5558 60.5264 55.1212 62.2811 54.6602 64.1387C54.5275 64.6728 54.3915 65.2234 54.2422 65.7641C54.1593 66.1821 53.9635 66.4906 53.6617 66.6598L53.5721 66.7095L53.5821 66.7062Z" fill="#030C6D"/>
<path d="M30.0005 19.1747C29.9507 19.1747 29.901 19.1647 29.8545 19.1448C29.6522 19.0619 29.556 18.833 29.6356 18.634C29.7418 18.3719 30.5014 16.5276 31.4368 15.3002C31.1847 15.3566 30.9956 15.4163 30.9326 15.4694L29.3072 17.0948L31.2577 13.028L29.2143 12.7029L30.8795 11.0045C29.9474 8.72231 28.3054 5.66057 27.3501 5.5876C26.8857 5.55111 26.5341 5.84302 26.3184 6.0918C25.6119 6.91777 25.038 8.9346 25.7446 11.8968C25.7943 12.1091 25.665 12.3214 25.4527 12.3712C25.2404 12.4209 25.0281 12.2916 24.9783 12.0793C24.3315 9.36583 24.6134 6.87465 25.7214 5.58096C26.1924 5.03031 26.7928 4.75499 27.4131 4.80143C29.2442 4.94407 31.3141 9.94965 31.7088 10.9514L31.8017 11.1903L30.8464 12.1655L32.4253 12.4176L31.4302 14.5008C31.8415 14.4179 32.2694 14.3714 32.5215 14.3515L34.1071 14.2188L32.767 15.0747C31.8448 15.6651 30.7269 18.0568 30.3753 18.9292C30.3123 19.0818 30.1663 19.1747 30.0104 19.1747H30.0005Z" fill="#030C6D"/>
<path d="M34.5416 53.3015L38.2668 61.6674L38.4493 59.9624L37.5569 55.7927L36.376 54.3232L34.5383 53.3015H34.5416Z" fill="#030C6D"/>
<path d="M53.9504 32.9477L54.1594 31.3223L58.83 32.5562L64.2867 35.8867C64.2867 35.9132 55.0517 32.2411 53.9504 32.9477Z" fill="#030C6D"/>
<path d="M63.789 19.7519L54.3981 38.5601C54.3981 38.5601 41.3883 45.8512 28.9025 38.4274L18.9875 21.2976L21.5318 23.1586L26.2256 25.1522L31.4733 26.4127L37.0859 27.0695L42.0683 27.1756L49.5452 26.4923L54.3981 25.5469L58.3588 24.0243L62.0574 21.9246L63.789 19.7485V19.7519Z" fill="#FAC6E3"/>
<path d="M41.1593 41.8707C37.328 41.8707 33.0423 41.0414 28.8328 38.5403L28.8029 38.5237L28.7864 38.4938L18.5596 20.8234L21.608 23.0558L26.2786 25.0361L31.5031 26.2867L37.1024 26.9402L42.0749 27.043L49.5351 26.363L54.3749 25.4209L58.3123 23.905L61.9711 21.8285L64.4656 18.6904L54.4976 38.6564L54.4611 38.6763C54.3749 38.726 48.6262 41.874 41.1593 41.874V41.8707ZM28.9986 38.3313C40.9503 45.4134 53.5423 38.8687 54.3019 38.464L63.1156 20.8134L62.127 22.0441L58.4284 24.1438L54.4512 25.673L49.5749 26.6251L42.0848 27.3084L37.0859 27.2056L31.46 26.5488L26.199 25.2882L21.482 23.288L19.4154 21.7787L29.002 38.3379L28.9986 38.3313Z" fill="#4E68F6"/>
<path d="M41.1529 42.1327C37.2817 42.1327 32.9495 41.2967 28.7003 38.7691C28.6439 38.7359 28.5941 38.6861 28.5609 38.6297L18.646 21.5C18.5365 21.3109 18.6029 21.0721 18.7886 20.9626C18.9777 20.8531 19.2165 20.9195 19.326 21.1052L29.1912 38.1454C40.7249 44.9356 52.8591 38.9283 54.103 38.2748L63.4375 19.5793C63.5337 19.3836 63.7692 19.3073 63.9649 19.4035C64.1606 19.4997 64.2369 19.7352 64.1407 19.931L54.7499 38.7392C54.7134 38.8089 54.6603 38.8686 54.5906 38.9051C54.5044 38.9548 48.6994 42.1327 41.1529 42.1327Z" fill="#030C6D"/>
<path d="M40.8079 27.5706C27.4066 27.5706 16.9111 23.2715 16.9111 17.785C16.9111 15.3867 18.9014 13.1675 22.6697 11.3696C22.8654 11.2767 23.1009 11.3596 23.1938 11.5554C23.2867 11.7511 23.2038 11.9866 23.0081 12.0795C19.5848 13.7148 17.6973 15.7383 17.6973 17.785C17.6973 22.7474 28.0634 26.7811 40.8079 26.7811C53.5524 26.7811 63.892 22.7441 63.892 17.785C63.892 16.1264 62.658 14.4811 60.326 13.0315C60.1403 12.9154 60.0839 12.6732 60.2 12.4908C60.3128 12.305 60.5582 12.2486 60.7407 12.3647C63.3148 13.9669 64.6781 15.8411 64.6781 17.7883C64.6781 23.2749 54.1926 27.5739 40.8079 27.5739V27.5706Z" fill="#030C6D"/>
<path d="M49.3329 9.44548C49.313 9.44548 49.2931 9.44548 49.2732 9.44216C46.4802 9.02752 43.6307 8.81522 40.8045 8.81522C38.791 8.81522 36.6879 8.928 34.5517 9.15357C34.3361 9.17679 34.1437 9.02088 34.1205 8.80195C34.0972 8.58633 34.2531 8.39062 34.4721 8.37072C36.6349 8.14184 38.7678 8.02905 40.8078 8.02905C43.6705 8.02905 46.5598 8.24135 49.3893 8.66263C49.6049 8.6958 49.7542 8.89483 49.721 9.11044C49.6912 9.30616 49.5253 9.44548 49.3329 9.44548Z" fill="#030C6D"/>
<path d="M4.53131 24.7642C4.53131 24.7642 2.79975 27.6235 5.39708 28.6983C5.39708 28.6983 2.59077 27.4146 1.40987 29.5641C1.40987 29.5641 2.77322 26.9933 0.388184 25.683C0.388184 25.7095 3.30064 27.5705 4.53131 24.7642Z" fill="#FFB400"/>
<path d="M1.40979 29.9555C1.34676 29.9555 1.28374 29.9389 1.22403 29.9091C1.03495 29.8062 0.961974 29.5707 1.06481 29.3783C1.11125 29.2921 2.11966 27.315 0.447815 26.1773C0.381472 26.1408 0.318447 26.101 0.262055 26.0612C0.242152 26.0512 0.222249 26.0379 0.202346 26.028V26.018C0.0796116 25.9152 0 25.8024 0 25.683C0 25.5437 0.0729773 25.4143 0.192395 25.3447C0.311812 25.275 0.461084 25.2717 0.583819 25.338C0.673382 25.3878 0.759628 25.4375 0.839239 25.4906C1.22403 25.693 2.09644 26.0744 2.90582 25.8522C3.35032 25.7294 3.71521 25.4309 3.99385 24.9632C4.1 24.7277 4.18956 24.5784 4.20283 24.5585C4.30898 24.3794 4.53786 24.3163 4.72031 24.4125C4.90275 24.5087 4.98236 24.731 4.89943 24.9201C4.83641 25.0594 4.77006 25.1921 4.7004 25.3181C4.49806 25.7692 4.22605 26.5786 4.45493 27.2752C4.60089 27.7164 4.92597 28.0481 5.44345 28.287C5.48657 28.3036 5.52637 28.3235 5.5695 28.34C5.76521 28.4296 5.85146 28.6585 5.76521 28.8542C5.67896 29.0499 5.45008 29.1428 5.25437 29.0599C5.22451 29.0466 5.19466 29.0333 5.1648 29.0234C4.73689 28.8476 2.66367 28.1078 1.76141 29.7531C1.68843 29.8825 1.55574 29.9588 1.41642 29.9588L1.40979 29.9555ZM1.90736 26.6682C2.15947 27.1857 2.22581 27.7396 2.186 28.2505C2.71675 27.9752 3.31383 27.8955 3.88107 27.9254C3.80809 27.796 3.74838 27.6567 3.69862 27.5141C3.57921 27.1492 3.55599 26.7743 3.58584 26.4194C3.10154 26.6715 2.53762 26.7578 1.90736 26.6649V26.6682Z" fill="#030C6D"/>
</svg>
