<svg width="200" height="201" viewBox="0 0 200 201" fill="none" xmlns="http://www.w3.org/2000/svg">
<path d="M99.9167 201C152.338 201 194.833 196.382 194.833 190.686C194.833 184.99 152.338 180.372 99.9167 180.372C47.4957 180.372 5 184.99 5 190.686C5 196.382 47.4957 201 99.9167 201Z" fill="#010C71"/>
<path d="M72.1443 58.8533L79.2733 55.8623L87.9677 53.3051L94.748 52.1893L96.8014 44.3164L94.7325 42.4101L102.652 34.4907L99.5446 14.4752L102.016 8.3458L110.781 9.35316L120.498 21.1005L129.246 18.7991L136.871 19.7987L142.171 11.7941L149.331 4.98277L153.214 3.95215L156.259 8.55502L157.569 27.2842L158.553 34.4907L166.054 45.7189L166.503 51.4376L164.341 50.9339L168.867 68.6635L169.122 75.6685L166.55 74.1807L161.784 98.2412L161.381 125.362L149.672 162.271L145.41 177.102L147.108 180.705L149.486 186.602L148.425 191.461L133.81 192.027L132.725 196.529L121.017 196.815L116.987 193.135L118.979 186.432L118.847 180.419L112.54 166.199L107.658 159.535L103.799 172.096L106.774 176.374L107.402 183.611L92.2606 183.123L89.037 168.617L85.0928 158.559L81.1021 159.024L79.4438 160.682L77.2509 159.21L74.6937 166.711L71.6406 167.47L73.1595 177.923L75.2439 183.999L74.655 189.19L60.9626 188.377L60.3117 181.635L59.4206 167.524L53.0355 135.204L51.0285 132.817L49.192 133.646L50.1994 114.072L44.9456 114.855L45.395 112.089L50.2769 99.109L41.6445 102.852L45.519 93.9018L55.5539 78.1715L50.672 77.3423L50.3776 74.204" fill="#B9C5FC"/>
<path d="M96.8166 110.004C95.3288 110.965 84.8678 112.546 80.2649 118.365C77.5605 121.783 75.2901 125.618 74.0425 129.803C72.8182 133.933 74.7399 143.426 73.4458 147.54C72.3997 150.872 70.5322 153.933 69.8348 157.35C69.1374 160.768 70.0441 164.929 73.1591 166.502C73.5698 166.711 74.0657 166.858 74.4764 166.657C74.9104 166.44 75.0731 165.921 75.1971 165.456C75.8557 162.93 76.5222 160.396 77.1808 157.87C78.01 157.211 78.8081 158.683 79.645 159.334C80.5594 160.047 81.9774 159.675 82.7833 158.838C83.5892 158.001 83.9456 156.839 84.3021 155.739C85.5962 151.732 87.2699 147.842 89.2847 144.146C91.4156 140.233 93.9495 136.506 95.4993 132.329C96.7159 129.043 98.7616 123.333 96.7081 120.078C94.7631 116.986 99.583 108.222 96.8166 110.004Z" fill="white"/>
<path d="M152.678 30.8102C151.19 29.8339 149.594 28.8885 148.641 27.3852C147.455 25.5177 147.525 22.9296 148.811 21.1318C149.586 20.0547 150.718 19.2798 151.523 18.226C152.384 17.1024 152.848 15.6998 153.802 14.646C154.081 14.336 154.429 14.0493 154.848 14.0183C155.359 13.9796 155.824 14.367 156.049 14.8319C156.273 15.2969 156.304 15.8238 156.343 16.3352C156.498 18.6832 156.738 21.0543 157.475 23.2938C157.854 24.4406 158.366 25.5565 158.528 26.7498C158.699 28.0671 158.42 29.3612 158.149 30.6475C157.94 31.6316 157.947 33.5379 157.343 34.2585C155.731 33.2047 154.29 31.8641 152.678 30.8102Z" fill="white"/>
<path d="M105.342 20.5894C106.714 20.1012 108.411 21.0079 108.76 22.4182C108.992 23.3481 108.705 24.3554 108.961 25.2775C109.085 25.7347 109.341 26.1454 109.418 26.6104C109.604 27.6875 108.845 28.6716 108.256 29.5937C107.675 30.5081 107.218 31.5077 106.59 32.3988C105.962 33.2899 105.102 34.0803 104.048 34.3205C103.932 34.3515 103.793 34.367 103.692 34.3051C103.576 34.2353 103.529 34.0881 103.498 33.9563C102.669 30.5081 100.453 22.3329 105.342 20.5894Z" fill="white"/>
<path d="M146.904 142.581C145.091 143.503 143.588 144.96 142.34 146.564C140.511 148.912 139.155 151.616 138.365 154.484C137.35 158.18 137.296 162.062 137.241 165.89C137.21 168.199 137.179 170.516 137.148 172.825C137.125 174.607 137.11 176.444 137.807 178.079C138.504 179.714 140.116 181.101 141.891 180.962C142.294 180.931 142.697 180.814 142.999 180.535C143.262 180.287 143.41 179.947 143.541 179.606C144.231 177.769 144.549 175.824 144.975 173.91C147.013 164.72 151.36 156.243 154.669 147.432C155.095 146.293 155.513 145.069 155.211 143.883C154.374 140.597 149.004 141.512 146.904 142.581Z" fill="white"/>
<path d="M107.317 158.497C104.938 164.456 103.217 173.096 103.217 173.096C103.217 173.096 107.89 172.182 107.89 183.759L92.1287 183.852C90.3309 181.225 88.0295 160.179 84.1783 158.722C80.327 157.265 80.8617 161.992 80.8617 161.992C79.064 159.504 77.4212 157.8 77.8396 156.002L75.9024 166.525C75.9024 166.525 73.632 167.556 71.842 164.905L73.1593 177.931C75.9024 180.047 75.3135 188.857 75.3135 188.857H62.1015C61.2182 188.857 60.5053 188.144 60.5053 187.261V178.931C60.6447 166.354 52.3224 134.63 52.5548 131.802C52.0124 133.15 50.8423 133.778 47.9365 135.459C50.2457 128.261 49.2538 118.427 51.9117 111.345C49.7497 113.569 47.7273 116.079 44.1783 114.584C47.8435 109.377 48.4402 105.758 51.5475 96.6838C48.045 100.729 44.7207 101.914 40.1953 104.781C44.7827 91.8562 51.563 89.5083 56.1504 76.5831C54.7168 77.6602 50.6641 78.1638 49.0136 79.0627C49.0136 79.0627 61.6289 57.2262 94.864 52.9023" stroke="#000D66" stroke-width="1.85974" stroke-miterlimit="10" stroke-linecap="round" stroke-linejoin="round"/>
<path d="M127.442 52.8564C127.209 57.7538 122.304 57.9398 119.228 56.328C118.895 56.1498 117.469 54.042 117.469 54.042" stroke="#010C71" stroke-width="1.85974" stroke-miterlimit="10" stroke-linecap="round" stroke-linejoin="round"/>
<path d="M127.395 52.8564C127.162 57.7538 132.021 58.4124 135.237 57.1029C135.585 56.9634 135.888 56.7154 136.12 56.421L137.205 54.9952" stroke="#010C71" stroke-width="1.85974" stroke-miterlimit="10" stroke-linecap="round" stroke-linejoin="round"/>
<path d="M126.363 52.3215L124.511 50.2293C123.573 49.1755 124.372 47.5017 125.782 47.5714L129.602 47.7574C130.997 47.8272 131.64 49.5242 130.64 50.5005L128.68 52.4068C128.014 53.0422 126.967 53.0035 126.363 52.3215Z" fill="#010C71"/>
<path d="M127.371 52.8555H127.394C127.41 52.8555 127.418 52.8555 127.433 52.8555V52.8632C127.449 52.8632 127.449 52.8632 127.464 52.8555C127.487 52.8555 127.518 52.8555 127.549 52.8632" stroke="#000D66" stroke-width="1.85974" stroke-miterlimit="10" stroke-linecap="round" stroke-linejoin="round"/>
<path d="M103.046 34.491C101.117 28.0284 96.8085 10.1826 102.016 8.34613C110.842 5.23106 120.497 20.4112 120.497 20.4112" stroke="#010C71" stroke-width="1.85974" stroke-miterlimit="10" stroke-linecap="round" stroke-linejoin="round"/>
<path d="M136.344 19.9077C137.545 15.8085 146.247 4.4718 152.578 6.41678C159.544 8.55549 158.266 27.8581 157.87 33.5613" stroke="#010C71" stroke-width="1.85974" stroke-miterlimit="10" stroke-linecap="round" stroke-linejoin="round"/>
<path d="M114.742 24.1302C120.507 20.4184 126.211 15.6993 139.926 21.5265" stroke="#010C71" stroke-width="1.85974" stroke-miterlimit="10" stroke-linecap="round" stroke-linejoin="round"/>
<path d="M162.645 90.1748C173.377 104.882 143.877 175.134 144.83 177.807C145.783 180.481 151.974 181.078 149.061 191.461H134.578L133.121 177.172" stroke="#010C71" stroke-width="1.85974" stroke-miterlimit="10" stroke-linecap="round" stroke-linejoin="round"/>
<path d="M133.235 140.869C131.903 154.421 133.809 196.289 133.809 196.289L121.008 196.816C113.398 195.251 119.597 185.309 119.597 185.309C120.744 182.829 116.242 173.321 104.603 152.322C92.9642 131.322 97.815 107.347 97.815 107.347" stroke="#010C71" stroke-width="1.85974" stroke-miterlimit="10" stroke-linecap="round" stroke-linejoin="round"/>
<path d="M145.002 41.2244C144.072 44.2387 140.879 45.9357 137.857 45.0059L132.363 43.6808L134.076 37.8613C135.006 34.847 138.198 33.15 141.22 34.0799C144.242 35.0097 145.932 38.2023 145.002 41.2244Z" fill="white" stroke="#020C71" stroke-width="1.85974" stroke-miterlimit="10" stroke-linecap="round"/>
<path d="M140.691 43.2318C140.505 43.844 140.218 44.4019 139.861 44.8978C139.861 44.8978 135.476 44.7738 134.267 42.8366C132.469 39.9618 136.049 35.8936 136.049 35.8936C136.336 35.9323 136.622 36.002 136.901 36.0873C139.923 37.0171 141.613 40.2175 140.691 43.2318Z" fill="#020C71" stroke="#020C71" stroke-width="1.85974" stroke-miterlimit="10" stroke-linecap="round"/>
<path d="M140.233 40.4495C141.11 40.4495 141.822 39.7383 141.822 38.861C141.822 37.9837 141.11 37.2725 140.233 37.2725C139.356 37.2725 138.645 37.9837 138.645 38.861C138.645 39.7383 139.356 40.4495 140.233 40.4495Z" fill="white"/>
<path d="M117.475 32.3371C120.629 32.2054 123.295 34.654 123.426 37.8079L124.015 43.4258L117.956 43.7513C114.802 43.883 112.136 41.4344 112.005 38.2805C111.881 35.1267 114.329 32.4688 117.475 32.3371Z" fill="white" stroke="#010C71" stroke-width="1.85974" stroke-miterlimit="10" stroke-linecap="round"/>
<path d="M119.166 41.0931C119.027 41.5813 118.802 42.023 118.531 42.4182C118.531 42.4182 115.067 42.3639 114.098 40.8452C112.657 38.598 114.308 35.0645 114.308 35.0645C114.532 35.0954 115.888 35.4286 116.113 35.4906C118.5 36.1958 119.864 38.7065 119.166 41.0931Z" fill="#020C71" stroke="#020C71" stroke-width="1.85974" stroke-miterlimit="10" stroke-linecap="round"/>
<path d="M118.947 38.4892C119.64 38.4892 120.202 37.9271 120.202 37.2338C120.202 36.5405 119.64 35.9785 118.947 35.9785C118.253 35.9785 117.691 36.5405 117.691 37.2338C117.691 37.9271 118.253 38.4892 118.947 38.4892Z" fill="white"/>
<path d="M107.673 29.6709C104.635 35.5058 97.2192 37.9235 93.9414 43.6267C95.3517 44.0839 96.9402 43.9367 98.2498 43.2393C95.5919 47.9429 94.2824 53.4059 94.5071 58.8069C95.6384 56.6062 97.4827 54.7774 99.6989 53.6693C99.7841 56.397 98.6528 58.9851 97.8701 61.5965C95.7159 68.7953 96.2661 76.7689 99.3812 83.6035C99.3967 79.7678 100.404 75.9475 102.279 72.6" stroke="#010C71" stroke-width="1.85974" stroke-miterlimit="10" stroke-linecap="round" stroke-linejoin="round"/>
<path d="M153.703 30.9346C161.111 35.181 166.349 42.9997 167.473 51.4692C166.31 50.6014 164.954 49.9969 163.536 49.7257C166.922 58.4433 170.363 67.525 169.665 76.847C169.084 75.305 168.069 73.9256 166.76 72.9183C165.628 80.2488 163.49 87.3778 161.366 94.4836C160.832 91.1748 159.941 87.928 158.708 84.8129C155.733 91.9032 154.416 99.6753 154.888 107.347C152.432 102.907 146.822 97.8001 146.992 92.7323" stroke="#010C71" stroke-width="1.85974" stroke-miterlimit="10" stroke-linecap="round" stroke-linejoin="round"/>
<path d="M131.083 59.6128C131.548 58.8921 127.333 55.2656 127.333 55.2656C127.333 55.2656 123.745 57.1409 123.202 57.908C122.35 59.1091 123.373 63.805 126.131 63.8669C127.991 63.9134 129.99 61.3021 131.083 59.6128Z" fill="#DD9CBE" stroke="#010C71" stroke-width="1.85974" stroke-miterlimit="10" stroke-linecap="round"/>
<path d="M106.774 157.35L96.8164 131.453C103.651 158.939 102.14 173.073 102.14 173.073L106.774 157.35Z" fill="#010C71"/>
<path d="M163.559 93.491L162.079 92.0884L158.599 87.0361L157.212 88.8571L156.43 91.5537C156.43 91.5537 162.621 111.701 159.994 127.935L163.652 113.413L164.969 100.752L163.559 93.491Z" fill="#010C71"/>
<path d="M93.9432 53.0342V58.2957L98.8327 54.1578L98.2438 60.6359C98.2438 60.6359 76.5856 58.3112 64.6367 64.673L76.911 57.4588L86.2717 53.933L93.9432 53.0342Z" fill="#010C71"/>
<path d="M144.914 50.5076C144.914 50.5076 150.532 47.873 158.792 45.7188" stroke="#020C71" stroke-width="1.85974" stroke-miterlimit="10" stroke-linecap="round"/>
<path d="M142.449 53.832C142.449 53.832 146.703 56.4047 152.027 60.3489" stroke="#020C71" stroke-width="1.85974" stroke-miterlimit="10" stroke-linecap="round"/>
<path d="M111.477 48.6869C111.477 48.6869 109.09 46.4087 101.543 42.418" stroke="#020C71" stroke-width="1.85974" stroke-miterlimit="10" stroke-linecap="round"/>
<path d="M113.12 52.4844C113.12 52.4844 109.532 53.577 103.449 56.1961" stroke="#020C71" stroke-width="1.85974" stroke-miterlimit="10" stroke-linecap="round"/>
<path d="M101.227 176.203C101.227 176.203 103.249 177.699 103.249 183.789Z" fill="white"/>
<path d="M101.227 176.203C101.227 176.203 103.249 177.699 103.249 183.789" stroke="#000D66" stroke-width="1.85974" stroke-miterlimit="10" stroke-linecap="round" stroke-linejoin="round"/>
<path d="M95.8086 176.203C95.8086 176.203 97.8311 177.699 97.8311 183.789Z" fill="white"/>
<path d="M95.8086 176.203C95.8086 176.203 97.8311 177.699 97.8311 183.789" stroke="#000D66" stroke-width="1.85974" stroke-miterlimit="10" stroke-linecap="round" stroke-linejoin="round"/>
<path d="M70.1914 181.023C70.1914 181.023 71.9969 182.767 71.1988 188.811Z" fill="white"/>
<path d="M70.1914 181.023C70.1914 181.023 71.9969 182.767 71.1988 188.811" stroke="#000D66" stroke-width="1.85974" stroke-miterlimit="10" stroke-linecap="round" stroke-linejoin="round"/>
<path d="M65.3086 181.023C65.3086 181.023 67.1141 182.767 66.3159 188.811Z" fill="white"/>
<path d="M65.3086 181.023C65.3086 181.023 67.1141 182.767 66.3159 188.811" stroke="#000D66" stroke-width="1.85974" stroke-miterlimit="10" stroke-linecap="round" stroke-linejoin="round"/>
<path d="M123.379 188.105C123.379 188.105 121.721 189.988 123 195.947Z" fill="white"/>
<path d="M123.379 188.105C123.379 188.105 121.721 189.988 123 195.947" stroke="#000D66" stroke-width="1.85974" stroke-miterlimit="10" stroke-linecap="round" stroke-linejoin="round"/>
<path d="M128.239 188.105C128.239 188.105 126.581 189.988 127.859 195.947Z" fill="white"/>
<path d="M128.239 188.105C128.239 188.105 126.581 189.988 127.859 195.947" stroke="#000D66" stroke-width="1.85974" stroke-miterlimit="10" stroke-linecap="round" stroke-linejoin="round"/>
<path d="M143.961 183.611C143.961 183.611 145.619 185.494 144.341 191.453Z" fill="white"/>
<path d="M143.961 183.611C143.961 183.611 145.619 185.494 144.341 191.453" stroke="#000D66" stroke-width="1.85974" stroke-miterlimit="10" stroke-linecap="round" stroke-linejoin="round"/>
<path d="M139.109 183.611C139.109 183.611 140.768 185.494 139.489 191.453Z" fill="white"/>
<path d="M139.109 183.611C139.109 183.611 140.768 185.494 139.489 191.453" stroke="#000D66" stroke-width="1.85974" stroke-miterlimit="10" stroke-linecap="round" stroke-linejoin="round"/>
<path d="M117.965 75.3203C115.222 78.4896 115.454 83.4489 116.059 87.7495C116.593 91.5775 117.306 95.452 119.034 98.8383C121.367 103.418 122.614 90.2912 124.017 95.3047C124.807 98.1408 135.09 116.498 137.407 118.032C139.871 119.66 143.211 117.614 144.474 114.793C145.737 111.973 140.847 107.773 140.235 104.696C139.375 100.388 137.136 99.0939 139.073 94.9948C140.297 92.4144 141.87 89.6635 141.312 86.8274C140.723 83.8208 138.004 81.9921 136.252 79.5822C135.051 77.9316 134.253 75.9324 132.843 74.4911C130.611 72.2129 129.565 72.4144 126.752 72.3756C123.637 72.3291 120.227 72.7089 117.965 75.3203Z" fill="white"/>
<path d="M114.863 82.9141C115.15 88.1368 118.978 100.086 119.892 99.7835C120.505 99.582 122.349 94.5142 123.023 92.6234C125.123 98.7684 128.261 104.557 132.26 109.679C132.616 107.858 132.98 106.037 133.337 104.216" stroke="#010C71" stroke-width="1.85974" stroke-miterlimit="10" stroke-linecap="round" stroke-linejoin="round"/>
<path d="M157.228 13.5223L154.935 1C152.362 2.64277 145.07 8.68695 145.07 8.68695L150.014 5.33165L155.516 7.36962L157.228 13.5223Z" fill="#010C71" stroke="#010C71" stroke-width="1.85974" stroke-miterlimit="10" stroke-linecap="round" stroke-linejoin="round"/>
<path d="M111.325 10.4927L99.1354 3.53418C98.8565 6.57176 99.9491 20.4578 99.9491 20.4578L99.2129 9.5086L104.157 6.40127L111.325 10.4927Z" fill="#010C71" stroke="#010C71" stroke-width="1.85974" stroke-miterlimit="10" stroke-linecap="round" stroke-linejoin="round"/>
</svg>
