<svg preserveAspectRatio="none" overflow="visible" style="display: block;" width="20" height="20" viewBox="0 0 20 20" fill="none" xmlns="http://www.w3.org/2000/svg">
<g id="icon/route">
<path id="Vector" d="M5.83333 1.66667C5.03768 1.66667 4.27462 1.98274 3.71201 2.54535C3.1494 3.10796 2.83333 3.87102 2.83333 4.66667C2.83333 6.83333 5.41667 9.5 5.53333 9.61667C5.5722 9.65699 5.6188 9.68907 5.67035 9.71098C5.72189 9.73289 5.77733 9.74418 5.83333 9.74418C5.88934 9.74418 5.94477 9.73289 5.99632 9.71098C6.04787 9.68907 6.09447 9.65699 6.13333 9.61667C6.25 9.5 8.83333 6.83333 8.83333 4.66667C8.83333 3.87102 8.51726 3.10796 7.95465 2.54535C7.39204 1.98274 6.62898 1.66667 5.83333 1.66667ZM5.83333 3.58333C6.12065 3.58333 6.3962 3.69747 6.59937 3.90063C6.80253 4.1038 6.91667 4.37935 6.91667 4.66667C6.91667 4.95398 6.80253 5.22953 6.59937 5.4327C6.3962 5.63586 6.12065 5.75 5.83333 5.75C5.54602 5.75 5.27047 5.63586 5.0673 5.4327C4.86414 5.22953 4.75 4.95398 4.75 4.66667C4.75 4.37935 4.86414 4.1038 5.0673 3.90063C5.27047 3.69747 5.54602 3.58333 5.83333 3.58333ZM14.1667 10.4167C13.7727 10.4167 13.3826 10.4943 13.0186 10.645C12.6546 10.7958 12.3239 11.0168 12.0453 11.2953C11.7668 11.5739 11.5458 11.9046 11.395 12.2686C11.2443 12.6326 11.1667 13.0227 11.1667 13.4167C11.1667 15.5833 13.75 18.25 13.8667 18.3667C13.9055 18.407 13.9521 18.4391 14.0037 18.461C14.0552 18.4829 14.1107 18.4942 14.1667 18.4942C14.2227 18.4942 14.2781 18.4829 14.3297 18.461C14.3812 18.4391 14.4278 18.407 14.4667 18.3667C14.5833 18.25 17.1667 15.5833 17.1667 13.4167C17.1667 13.0227 17.0891 12.6326 16.9383 12.2686C16.7875 11.9046 16.5666 11.5739 16.288 11.2953C16.0094 11.0168 15.6787 10.7958 15.3147 10.645C14.9507 10.4943 14.5606 10.4167 14.1667 10.4167ZM14.1667 12.3333C14.454 12.3333 14.7295 12.4475 14.9327 12.6506C15.1359 12.8538 15.25 13.1293 15.25 13.4167C15.25 13.704 15.1359 13.9795 14.9327 14.1827C14.7295 14.3859 14.454 14.5 14.1667 14.5C13.8793 14.5 13.6038 14.3859 13.4006 14.1827C13.1975 13.9795 13.0833 13.704 13.0833 13.4167C13.0833 13.1293 13.1975 12.8538 13.4006 12.6506C13.6038 12.4475 13.8793 12.3333 14.1667 12.3333ZM9.5 6.33333C9.61919 6.24713 9.75907 6.19401 9.90544 6.17938C10.0518 6.16474 10.1994 6.18911 10.3333 6.25C11.9167 7 13 7.83333 13.6667 8.83333C14.3333 9.83333 14.5 10.9167 14.3333 12C14.3114 12.1094 14.2682 12.2135 14.2061 12.3062C14.144 12.3989 14.0643 12.4785 13.9714 12.5404C13.8785 12.6023 13.7744 12.6454 13.6649 12.667C13.5554 12.6887 13.4428 12.6886 13.3333 12.6667C13.2239 12.6448 13.1198 12.6016 13.0271 12.5395C12.9344 12.4774 12.8548 12.3976 12.7929 12.3047C12.731 12.2119 12.688 12.1077 12.6663 11.9983C12.6447 11.8888 12.6448 11.7761 12.6667 11.6667C12.8 10.9583 12.6917 10.3333 12.2667 9.70833C11.8333 9.075 11.0167 8.4 9.61667 7.74167C9.49107 7.6769 9.38402 7.58125 9.30555 7.46373C9.22709 7.3462 9.17981 7.21065 9.16814 7.06982C9.15647 6.929 9.18081 6.78751 9.23886 6.65868C9.29692 6.52984 9.38678 6.41789 9.5 6.33333ZM7.91667 13.25C8.13768 13.25 8.34964 13.3378 8.50592 13.4941C8.6622 13.6504 8.75 13.8623 8.75 14.0833C8.75 14.3043 8.6622 14.5163 8.50592 14.6726C8.34964 14.8289 8.13768 14.9167 7.91667 14.9167H4.5C4.27899 14.9167 4.06702 14.8289 3.91074 14.6726C3.75446 14.5163 3.66667 14.3043 3.66667 14.0833C3.66667 13.8623 3.75446 13.6504 3.91074 13.4941C4.06702 13.3378 4.27899 13.25 4.5 13.25H7.91667Z" fill="#0073AE"/>
</g>
</svg>
